<?xml version="1.0"?><svg width="533.3333333333333" height="533.3333333333333" xmlns="http://www.w3.org/2000/svg">
 <title>explosion blank pow</title>
 <g>
  <title>Layer 1</title>
  <g id="g830">
   <path d="m329.220764,311.192627l69.378204,52.646423l-38.206512,-91.648163l100.127991,22.912628l-59.286865,-51.551331l110.667633,0l-102.762634,-31.50473l90.905701,-39.990524l-76.54599,-16.124954l39.669952,-49.350479l-62.513641,9.22023l22.976624,-62.703739l-59.588959,38.896671l-14.00705,-57.781357l-42.355133,51.7854c0,-3.596863 -24.86087,-51.050983 -26.178192,-51.050983c-1.317322,0 -25.624451,50.084904 -25.624451,50.084904l-44.359116,-46.255184l-11.132904,54.416164l-41.553085,-46.591923c0,0 -0.9086,52.051693 -3.543243,52.051693c-2.634628,0 -62.923355,-32.271393 -62.923355,-32.271393c0,0 14.466293,59.28125 14.466293,60.713058c0,1.431816 -65.412853,-10.326027 -65.412853,-10.326027l53.871471,42.761017l-57.086189,19.512817c0,0 47.851028,36.207397 46.533501,37.639206c-1.317429,1.431824 -42.304031,37.82428 -42.304031,37.82428c0,0 73.053391,-1.79126 71.736069,-1.79126c-0.145027,1.198975 -69.85162,54.54277 -69.85162,55.974564c0,1.431824 75.847088,-19.081696 75.847088,-19.081696l-51.105095,74.533234l85.213554,-60.445557l-18.009521,65.60318l50.208466,-41.189453l2.792847,44.053101l48.760406,-39.524811l28.938782,64.132263l18.924011,-62.431763l35.111542,26.904785l8.220306,-50.050293z" id="path816" stroke-width="2.15822" fill-rule="evenodd" fill-opacity="0.5" fill="#ffffff"/>
   <path d="m310.234436,293.39328l69.378204,52.646423l-38.206512,-91.648178l100.127991,22.912643l-59.286835,-51.551346l110.667603,0l-102.762634,-31.50473l90.905701,-39.990524l-76.54599,-16.124939l39.669952,-49.350479l-62.513641,9.220222l22.976654,-62.703732l-59.588989,38.896656l-14.00705,-57.781338l-42.355133,51.785389c0,-3.596855 -24.86087,-51.050978 -26.178192,-51.050978c-1.317291,0 -25.624451,50.08489 -25.624451,50.08489l-44.359116,-46.255171l-11.132904,54.416166l-41.553085,-46.591936c0,0 -0.9086,52.051706 -3.543228,52.051706c-2.634628,0 -62.923355,-32.271385 -62.923355,-32.271385c0,0 14.466278,59.281227 14.466278,60.713051c0,1.431808 -65.412853,-10.326035 -65.412853,-10.326035l53.871479,42.761024l-57.086208,19.512817c0,0 47.85104,36.207382 46.533504,37.639206c-1.317421,1.431808 -42.304035,37.824295 -42.304035,37.824295c0,0 73.053387,-1.791275 71.73608,-1.791275c-0.14502,1.198959 -69.85162,54.54274 -69.85162,55.974564c0,1.431824 75.847111,-19.081696 75.847111,-19.081696l-51.10511,74.533203l85.213547,-60.445526l-18.009521,65.60318l50.208481,-41.189484l2.792816,44.053131l48.760437,-39.524811l30.520981,54.423523l17.341797,-52.723022l35.111542,26.904755l8.220306,-50.050262z" id="path599" stroke-linejoin="round" stroke-width="10" stroke="#000000" fill-rule="evenodd" fill="#ffffff"/>
  </g>
 </g>
</svg>